<svg width="30" height="27" viewBox="0 0 30 27" fill="none" xmlns="http://www.w3.org/2000/svg">
<g clip-path="url(#clip0_338_216)">
<path d="M3.61191 9.1942H16.9549L14.1755 6.58929C12.6897 5.19643 12.5648 2.80915 13.8969 1.25558C14.611 0.425223 15.5972 0 16.5866 0C17.4448 0 18.3061 0.31808 18.9978 0.964286L28.8024 10.1585C28.8024 10.1585 28.8024 10.1585 28.8056 10.1618C28.8857 10.2388 28.9625 10.3192 29.0362 10.4029C29.0586 10.4297 29.081 10.4565 29.1034 10.4833C29.1547 10.5435 29.1995 10.6038 29.2475 10.6674C29.2699 10.6975 29.2955 10.731 29.3148 10.7612C29.3692 10.8415 29.4236 10.9252 29.4749 11.0123C29.4973 11.0491 29.5165 11.0893 29.5357 11.1295C29.5677 11.1897 29.5997 11.25 29.6286 11.3136C29.651 11.3605 29.6702 11.404 29.6894 11.4509C29.7022 11.4777 29.715 11.5045 29.7246 11.5312C29.7374 11.5614 29.747 11.5915 29.7566 11.6217C29.7727 11.6652 29.7887 11.7087 29.8047 11.7556C29.8303 11.8359 29.8527 11.9129 29.8751 11.9933C29.8815 12.0167 29.8879 12.0402 29.8943 12.0636C29.9199 12.1674 29.9392 12.2746 29.9552 12.3817C29.9584 12.4118 29.9616 12.442 29.968 12.4721C29.9776 12.5525 29.9872 12.6328 29.9904 12.7132C29.9904 12.7467 29.9936 12.7801 29.9968 12.8136C30 12.9007 30 12.9877 29.9968 13.0748C29.9968 13.0982 29.9968 13.1217 29.9968 13.1451C29.9936 13.2522 29.984 13.3594 29.9712 13.4632C29.968 13.4967 29.9616 13.5335 29.9552 13.567C29.9456 13.6373 29.9328 13.7109 29.9167 13.7812C29.9071 13.8248 29.8975 13.8683 29.8879 13.9118C29.8719 13.9788 29.8527 14.0458 29.8335 14.1094C29.8207 14.1496 29.8111 14.1897 29.7983 14.2266C29.7662 14.3237 29.731 14.4174 29.6894 14.5078C29.6734 14.5446 29.6542 14.5815 29.6382 14.6217C29.6093 14.6853 29.5773 14.7489 29.5421 14.8125C29.5229 14.8493 29.5037 14.8862 29.4813 14.923C29.4364 15 29.3916 15.0737 29.3436 15.144C29.3308 15.1641 29.318 15.1842 29.3052 15.2009C29.2411 15.2913 29.1707 15.3817 29.1002 15.4654C29.0938 15.4721 29.0874 15.4821 29.081 15.4922C29.0682 15.5089 29.0522 15.5223 29.0362 15.5391C29.0074 15.5725 28.9753 15.6094 28.9465 15.6429L19.1418 25.8951C17.7297 27.3683 15.4435 27.3683 14.0346 25.8951C12.6225 24.4185 12.6225 22.0279 14.0346 20.5547L17.6721 16.7511H3.61191C1.61703 16.7511 0 15.0603 0 12.9743C0 10.8884 1.61703 9.19754 3.61191 9.19754V9.1942Z" fill="#D24C36"/>
</g>
<defs>
<clipPath id="clip0_338_216">
<rect width="30" height="27" fill="white"/>
</clipPath>
</defs>
</svg>
