<svg width="62" height="69" viewBox="0 0 62 69" fill="none" xmlns="http://www.w3.org/2000/svg">
<path d="M40.8874 8.30762L40.8874 38.9972L46.869 32.6045C50.0675 29.1871 55.5494 28.8999 59.1168 31.9637C61.0236 33.6061 62 35.8745 62 38.1502C62 40.124 61.2696 42.1052 59.7857 43.696L38.6731 66.2474C38.6731 66.2474 38.6731 66.2474 38.6654 66.2547C38.4886 66.4388 38.3041 66.6156 38.1119 66.785C38.0503 66.8366 37.9888 66.8881 37.9273 66.9397C37.7889 67.0575 37.6505 67.1606 37.5045 67.2711C37.4353 67.3226 37.3584 67.3816 37.2892 67.4257C37.1047 67.551 36.9124 67.6762 36.7125 67.794C36.628 67.8455 36.5357 67.8897 36.4434 67.9339C36.3051 68.0076 36.1667 68.0812 36.0206 68.1475C35.9129 68.1991 35.813 68.2433 35.7054 68.2874C35.6438 68.3169 35.5823 68.3464 35.5208 68.3685C35.4516 68.3979 35.3824 68.42 35.3132 68.4421C35.2133 68.4789 35.1133 68.5158 35.0057 68.5526C34.8212 68.6115 34.6443 68.6631 34.4598 68.7146C34.406 68.7293 34.3522 68.7441 34.2984 68.7588C34.06 68.8177 33.814 68.8619 33.568 68.8987C33.4988 68.9061 33.4296 68.9135 33.3604 68.9282C33.1758 68.9503 32.9913 68.9724 32.8068 68.9797C32.7299 68.9797 32.653 68.9871 32.5761 68.9945C32.3762 69.0018 32.1763 69.0018 31.9764 68.9945C31.9226 68.9945 31.8688 68.9945 31.815 68.9945C31.5689 68.9871 31.3229 68.965 31.0846 68.9356C31.0077 68.9282 30.9231 68.9135 30.8462 68.8987C30.6848 68.8766 30.5156 68.8472 30.3542 68.8103C30.2542 68.7883 30.1543 68.7662 30.0543 68.7441C29.9005 68.7072 29.7468 68.663 29.6007 68.6189C29.5084 68.5894 29.4162 68.5673 29.3316 68.5378C29.1086 68.4642 28.8933 68.3832 28.6858 68.2874C28.6012 68.2506 28.5166 68.2064 28.4244 68.1696C28.2783 68.1033 28.1322 68.0297 27.9861 67.9487C27.9015 67.9045 27.817 67.8603 27.7324 67.8087C27.5556 67.7056 27.3864 67.6025 27.2249 67.492C27.1788 67.4626 27.1327 67.4331 27.0942 67.4036C26.8867 67.2564 26.6791 67.0943 26.4869 66.9323C26.4715 66.9176 26.4484 66.9028 26.4253 66.8881C26.3869 66.8586 26.3561 66.8218 26.3177 66.785C26.2408 66.7187 26.1562 66.6451 26.0794 66.5788L2.5372 44.0274C-0.845732 40.7795 -0.845731 35.521 2.5372 32.2804C5.92783 29.0325 11.4174 29.0325 14.8003 32.2804L23.5345 40.6469L23.5345 8.30762C23.5345 3.71928 27.4172 -1.51166e-06 32.2071 -1.30229e-06C36.997 -1.09291e-06 40.8797 3.71928 40.8797 8.30762L40.8874 8.30762Z" fill="white"/>
</svg>
