<svg width="35" height="35" viewBox="0 0 35 35" fill="none" xmlns="http://www.w3.org/2000/svg">
<path d="M24.7648 12.5401H34.9412C34.9495 12.684 34.9614 12.8049 34.9614 12.925C34.9614 17.0417 34.9697 21.1583 34.9614 25.2759C34.9614 26.6011 34.9844 27.9336 34.8604 29.2496C34.7208 30.7297 33.9998 31.9779 32.9528 33.0336C31.9654 34.0289 30.765 34.6356 29.4112 34.9582C29.2777 34.9875 29.1411 35.0014 29.0044 34.9994C21.3391 34.9994 13.6737 34.9967 6.00841 34.9912C5.05047 34.9912 4.19082 34.5522 3.38075 34.0747C1.69449 33.0776 0.657575 31.571 0.214885 29.6959C0.0311967 28.9197 0.0578306 28.0858 0.0532384 27.2774C0.0287466 22.5999 0.0158731 17.923 0.0146486 13.2467C0.0146486 12.4494 -0.124032 12.5456 0.708077 12.5318C3.0446 12.4915 5.38204 12.5062 7.71948 12.4998C8.5075 12.4998 9.29643 12.4998 10.1892 12.4998C10.045 12.7747 9.96414 12.9461 9.8723 13.1092C9.32123 14.0815 8.83906 15.086 8.71048 16.204C8.288 19.8854 9.41032 22.9362 12.533 25.0881C14.0191 26.1126 15.6916 26.5159 17.5193 26.581C20.765 26.6964 25.213 24.3595 26.1967 19.4693C26.6449 17.2369 26.2885 15.0759 25.0762 13.1C24.9743 12.9342 24.8879 12.7646 24.7648 12.5401Z" fill="#EB884B"/>
<path d="M9.19011 8.62932V0.01473C9.3343 0.00831487 9.44635 -0.00085272 9.55748 6.37254e-05C14.8753 0.00434047 20.1927 0.0101449 25.5099 0.0174764C26.3576 0.0174764 27.2063 0.0559687 28.0531 0.0248096C29.6594 -0.0347594 31.0417 0.561847 32.2779 1.49112C32.9872 2.01215 33.583 2.67154 34.0292 3.4293C34.4754 4.18705 34.7626 5.02736 34.8734 5.89923C35.0194 6.94581 34.9653 8.02172 34.9882 9.08388C35.0038 9.87019 34.9882 10.6565 34.9882 11.4786H34.586C31.102 11.4786 27.6183 11.4761 24.135 11.4712C23.9476 11.475 23.7646 11.4142 23.617 11.2989C21.9867 9.77488 20.0681 8.95191 17.8308 8.8621C15.4226 8.76587 13.3304 9.54943 11.5229 11.1129C11.2488 11.3656 10.8857 11.5 10.5127 11.4868C7.14289 11.4731 3.77404 11.4786 0.409788 11.4786H0.0212888C0.0121044 11.3603 -0.00167042 11.2724 0.000166465 11.1835C0.0231275 9.54852 0.000161083 7.91174 0.0864947 6.27955C0.170073 4.69227 0.858913 3.3341 1.95461 2.18671C2.257 1.8669 2.59222 1.57969 2.95479 1.32983V8.6284H4.33245V8.23983C4.33245 5.79231 4.33399 3.34448 4.33705 0.896351C4.33705 0.761633 4.3646 0.545353 4.44542 0.507778C4.6972 0.40485 4.96058 0.332837 5.22977 0.293328C5.28996 0.377317 5.32703 0.475598 5.33724 0.578346C5.35929 1.16121 5.37397 1.74498 5.37489 2.32784C5.37948 4.28353 5.37489 6.23923 5.37489 8.19309V8.62657H6.78653V0.0266442H7.75089V8.62474L9.19011 8.62932ZM31.7075 5.90839C31.7075 5.23481 31.7259 4.5603 31.7011 3.88671C31.6837 3.39 31.399 3.07657 30.9103 3.07016C29.5152 3.05 28.1192 3.05641 26.7241 3.07841C26.2226 3.08666 25.9893 3.29377 25.9765 3.78957C25.9348 5.18257 25.9195 6.57587 25.9306 7.96948C25.9306 8.49644 26.2887 8.84102 26.8416 8.85385C28.1339 8.88409 29.428 8.89143 30.7202 8.85935C31.3833 8.84377 31.6662 8.53309 31.6984 7.86134C31.7333 7.21158 31.7075 6.55907 31.7075 5.90839Z" fill="#EB884B"/>
<path d="M24.3488 17.7711C24.3984 21.392 21.318 24.5226 17.658 24.5739C13.7353 24.628 10.6659 21.6413 10.5814 17.7592C10.5042 14.1732 13.603 10.8969 17.2566 10.841C21.2546 10.7814 24.2937 13.758 24.3488 17.7711ZM12.4394 17.7308C12.4274 20.4096 14.797 22.8061 17.4991 22.7538C20.2195 22.7016 22.4761 20.6909 22.5413 17.7317C22.5937 15.3169 20.5915 12.6418 17.2878 12.6839C14.7318 12.7169 12.4504 15.0438 12.4394 17.7308Z" fill="#EB884B"/>
</svg>
