<svg width="999" height="134" viewBox="0 0 999 134" fill="none" xmlns="http://www.w3.org/2000/svg">
<g clip-path="url(#clip0_55_37)">
<path d="M21.7861 62.9026C26.2391 62.9026 29.7943 63.7076 32.4756 65.2937C35.157 66.8918 36.9885 69.3791 37.994 72.7435C40.0768 69.1027 42.8779 66.279 46.3733 64.2724C49.8686 62.2657 53.747 61.2684 58.0204 61.2684C62.2939 61.2684 65.7892 62.2057 68.7818 64.0681C71.7744 65.9426 74.0009 68.6461 75.4613 72.2028C77.3646 68.7422 80.0699 66.0507 83.5652 64.1402C87.0606 62.2297 90.9869 61.2684 95.3441 61.2684C101.7 61.2684 106.536 63.1789 109.852 67.012C113.168 70.845 114.82 76.4444 114.82 83.8341V127.992C114.82 129.542 114.473 130.66 113.802 131.344C113.132 132.029 111.911 132.366 110.187 132.366H87.0366C85.3129 132.366 84.1039 132.029 83.4216 131.344C82.7393 130.66 82.4041 129.542 82.4041 127.992V80.9623C82.4041 79.965 82.1767 79.1359 81.7218 78.4991C81.2669 77.8622 80.6325 77.5378 79.8185 77.5378C78.7292 77.5378 77.9511 77.8983 77.5082 78.6312V127.98C77.5082 129.53 77.173 130.648 76.4907 131.332C75.8084 132.017 74.5994 132.354 72.8876 132.354H49.7369C48.0132 132.354 46.8042 132.017 46.1219 131.332C45.4396 130.648 45.1044 129.53 45.1044 127.98V80.9503C45.1044 79.953 44.877 79.1239 44.4221 78.487C43.9672 77.8502 43.3328 77.5258 42.5188 77.5258C41.4295 77.5258 40.6514 77.8863 40.2085 78.6192V127.968C40.2085 129.518 39.8733 130.636 39.191 131.32C38.5087 132.005 37.2997 132.342 35.5879 132.342H12.3893C10.6656 132.342 9.4566 132.005 8.78626 131.32C8.10395 130.636 7.76878 129.518 7.76878 127.968V79.7127C7.76878 76.5285 7.3139 74.0893 6.40415 72.395C5.4944 70.7128 3.81855 69.1388 1.36462 67.6849C0.730193 67.3244 0.347141 67.024 0.203496 66.7957C0.0718223 66.5674 0 66.267 0 65.9065V64.2604C0 63.3472 0.550637 62.8906 1.63994 62.8906H21.7861V62.9026Z" fill="white"/>
<path d="M155.268 62.9026C156.992 62.9026 158.201 63.239 158.871 63.9239C159.553 64.6088 159.888 65.7263 159.888 67.2763V111.711C159.888 113.261 160.02 114.306 160.295 114.859C160.571 115.412 161.026 115.676 161.66 115.676C162.474 115.676 163.049 115.363 163.36 114.715C163.671 114.078 164.018 112.624 164.377 110.341C164.557 108.791 164.736 107.854 164.928 107.541C165.107 107.229 165.479 107.061 166.017 107.061H168.327C168.878 107.061 169.261 107.385 169.489 108.022C169.716 108.659 169.824 109.752 169.824 111.302C169.824 118.596 167.873 124.195 163.97 128.124C160.068 132.041 154.478 134 147.212 134C139.946 134 134.834 132.017 131.076 128.052C127.305 124.087 125.426 118.416 125.426 111.026V79.7247C125.426 76.5405 124.971 74.1013 124.061 72.4071C123.151 70.7249 121.475 69.1508 119.021 67.6969C118.387 67.3364 118.004 67.036 117.86 66.8077C117.729 66.5794 117.657 66.279 117.657 65.9186V64.2724C117.657 63.3592 118.208 62.9026 119.297 62.9026H155.256H155.268Z" fill="white"/>
<path d="M179.508 62.9026C187.313 62.9026 192.627 65.2216 195.44 69.8717C198.074 66.9519 201.031 64.7891 204.298 63.3832C207.566 61.9653 211.337 61.2684 215.599 61.2684C222.23 61.2684 227.677 63.0948 231.938 66.7356C236.2 70.3884 238.342 75.0265 238.342 80.6859C238.342 85.4322 236.618 89.2772 233.171 92.2331C229.724 95.201 225.271 96.6789 219.824 96.6789C214.378 96.6789 210.092 95.3091 206.681 92.5816C203.281 89.842 201.569 86.3814 201.569 82.1879C201.569 78.6312 202.79 75.7234 205.244 73.4404C207.698 71.1694 210.822 70.0279 214.641 70.0279C214.916 69.5713 215.048 69.1147 215.048 68.6581C215.048 67.3845 214.09 66.7476 212.187 66.7476C208.189 66.7476 204.741 68.2736 201.833 71.3256C198.924 74.3777 197.475 78.0425 197.475 82.3321C197.475 85.9849 198.493 89.1931 200.54 91.9688C202.587 94.7564 205.507 96.9553 209.326 98.6015C210.595 99.1542 211.433 99.767 211.84 100.452C212.247 101.137 212.45 102.302 212.45 103.936V128.004C212.45 130.924 210.906 132.378 207.818 132.378H180.166C177.353 132.378 175.941 130.924 175.941 128.004V79.7487C175.941 76.5645 175.486 74.1253 174.576 72.4311C173.666 70.7489 171.99 69.1748 169.536 67.7209C168.902 67.3604 168.519 67.06 168.375 66.8317C168.244 66.6034 168.172 66.303 168.172 65.9426V64.2964C168.172 63.3832 168.723 62.9266 169.812 62.9266H179.484L179.508 62.9026Z" fill="white"/>
<path d="M297.727 134C288.558 134 282.022 130.215 278.12 122.657C276.025 126.574 273.463 129.446 270.423 131.272C267.382 133.099 263.636 134.012 259.183 134.012C252.922 134.012 247.883 132.462 244.064 129.362C240.246 126.262 238.342 122.164 238.342 117.058C238.342 112.588 239.91 109.055 243.035 106.46C246.171 103.864 251.007 102.11 257.543 101.197C274.253 99.0101 282.597 92.6777 282.597 82.188C282.597 77.9945 281.148 74.3777 278.24 71.3137C275.331 68.2617 271.883 66.7357 267.885 66.7357C265.982 66.7357 265.024 67.3725 265.024 68.6462C265.024 69.1028 265.156 69.5594 265.431 70.016C269.25 70.016 272.374 71.1575 274.828 73.4285C277.282 75.7115 278.503 78.6193 278.503 82.1759C278.503 86.3695 276.755 89.83 273.26 92.5696C269.764 95.3092 265.288 96.667 259.841 96.667C254.395 96.667 249.894 95.2732 246.626 92.4975C243.358 89.7219 241.718 86.045 241.718 81.491C241.718 75.387 244.663 70.4846 250.576 66.7957C256.477 63.1069 264.282 61.2565 274.002 61.2565C285.625 61.2565 294.447 64.0802 300.492 69.7276C306.526 75.375 309.554 83.6779 309.554 94.6123V111.699C309.554 113.249 309.686 114.294 309.961 114.847C310.236 115.4 310.691 115.664 311.326 115.664C312.14 115.664 312.726 115.303 313.097 114.57C313.456 113.838 313.78 112.432 314.055 110.329C314.234 108.779 314.414 107.842 314.606 107.529C314.785 107.217 315.156 107.049 315.695 107.049H318.005C318.556 107.049 318.939 107.373 319.166 108.01C319.394 108.647 319.501 109.692 319.501 111.158C319.501 118.452 317.622 124.075 313.851 128.04C310.081 132.005 304.706 133.988 297.715 133.988L297.727 134ZM275.798 104.465C275.247 103.732 274.529 103.372 273.619 103.372C272.075 103.372 271.309 104.285 271.309 106.111V114.859C271.309 116.685 272.075 117.598 273.619 117.598C274.529 117.598 275.259 117.238 275.798 116.505V104.477V104.465Z" fill="white"/>
<path d="M356.837 50.8749C356.837 47.6907 356.382 45.2515 355.472 43.5573C354.563 41.8751 352.887 40.301 350.433 38.8351C349.798 38.4746 349.415 38.1742 349.272 37.9459C349.14 37.7176 349.068 37.4172 349.068 37.0567V35.4106C349.068 34.4974 349.619 34.0408 350.708 34.0408H386.667C388.391 34.0408 389.6 34.3892 390.27 35.0621C390.953 35.747 391.288 36.8645 391.288 38.4145V111.699C391.288 113.249 391.419 114.294 391.695 114.847C391.97 115.4 392.425 115.664 393.059 115.664C393.873 115.664 394.448 115.352 394.759 114.703C395.07 114.066 395.418 112.612 395.777 110.329C395.956 108.779 396.136 107.842 396.327 107.529C396.507 107.217 396.878 107.049 397.417 107.049H399.727C400.278 107.049 400.661 107.373 400.888 108.01C401.115 108.647 401.223 109.74 401.223 111.29C401.223 118.584 399.272 124.183 395.37 128.112C391.467 132.029 385.877 133.988 378.611 133.988C371.345 133.988 366.234 132.005 362.475 128.04C358.704 124.075 356.825 118.404 356.825 111.014V50.8749H356.837Z" fill="white"/>
<path d="M465.384 134C456.215 134 449.679 130.215 445.777 122.657C443.682 126.574 441.12 129.446 438.08 131.272C435.04 133.099 431.293 134.012 426.84 134.012C420.579 134.012 415.54 132.462 411.721 129.362C407.903 126.262 405.999 122.164 405.999 117.058C405.999 112.588 407.567 109.055 410.692 106.46C413.828 103.864 418.664 102.11 425.2 101.197C441.91 99.0101 450.254 92.6777 450.254 82.188C450.254 77.9945 448.805 74.3777 445.897 71.3137C442.988 68.2617 439.54 66.7357 435.542 66.7357C433.639 66.7357 432.681 67.3725 432.681 68.6462C432.681 69.1028 432.813 69.5594 433.088 70.016C436.907 70.016 440.031 71.1575 442.485 73.4285C444.939 75.7115 446.16 78.6193 446.16 82.1759C446.16 86.3695 444.412 89.83 440.917 92.5696C437.422 95.3092 432.945 96.667 427.498 96.667C422.052 96.667 417.551 95.2732 414.283 92.4975C411.015 89.7219 409.375 86.045 409.375 81.491C409.375 75.387 412.32 70.4846 418.233 66.7957C424.135 63.1069 431.939 61.2565 441.659 61.2565C453.282 61.2565 462.105 64.0802 468.15 69.7276C474.183 75.375 477.211 83.6779 477.211 94.6123V111.699C477.211 113.249 477.343 114.294 477.618 114.847C477.893 115.4 478.348 115.664 478.983 115.664C479.797 115.664 480.383 115.303 480.754 114.57C481.113 113.838 481.437 112.432 481.712 110.329C481.892 108.779 482.071 107.842 482.263 107.529C482.442 107.217 482.813 107.049 483.352 107.049H485.662C486.213 107.049 486.596 107.373 486.823 108.01C487.051 108.647 487.159 109.692 487.159 111.158C487.159 118.452 485.279 124.075 481.509 128.04C477.738 132.005 472.363 133.988 465.372 133.988L465.384 134ZM443.455 104.465C442.904 103.732 442.186 103.372 441.276 103.372C439.732 103.372 438.966 104.285 438.966 106.111V114.859C438.966 116.685 439.732 117.598 441.276 117.598C442.186 117.598 442.916 117.238 443.455 116.505V104.477V104.465Z" fill="white"/>
<path d="M523.944 116.637C523.944 119.004 523.13 120.987 521.49 122.585C519.85 124.183 517.623 125.072 514.81 125.252C514.451 125.805 514.259 126.298 514.259 126.754C514.259 127.944 515.073 128.533 516.713 128.533C519.622 128.533 522.232 127.283 524.542 124.772C526.852 122.261 528.013 119.377 528.013 116.084C528.013 112.348 526.745 109.404 524.195 107.265C521.657 105.126 517.252 103.324 510.98 101.87C499.081 99.1302 493.132 93.3025 493.132 84.3748C493.132 77.2614 496.555 71.638 503.414 67.4926C510.273 63.3472 519.55 61.2684 531.269 61.2684C540.894 61.2684 548.387 62.7464 553.738 65.7143C559.089 68.6822 561.77 72.8036 561.77 78.0905C561.77 81.7313 560.357 84.6271 557.544 86.7659C554.731 88.9047 550.829 89.9741 545.825 89.9741C540.822 89.9741 536.931 88.9288 533.843 86.826C530.755 84.7353 529.211 81.9957 529.211 78.6192C529.211 76.2521 530.024 74.2695 531.664 72.6714C533.304 71.0733 535.519 70.1841 538.344 70.0039C538.703 69.4512 538.895 68.9585 538.895 68.5019C538.895 67.3124 538.081 66.7236 536.441 66.7236C533.532 66.7236 530.922 67.9732 528.612 70.4845C526.302 72.9958 525.141 75.8796 525.141 79.1719C525.141 82.9089 526.529 85.8768 529.294 88.0636C532.059 90.2505 536.668 92.0288 543.12 93.3986C550.745 94.9487 556.192 97.1115 559.46 99.8871C562.728 102.663 564.368 106.604 564.368 111.711C564.368 118.908 561.171 124.423 554.767 128.256C548.363 132.089 539.17 134 527.188 134C516.294 134 507.592 132.45 501.104 129.35C494.616 126.25 491.36 122.152 491.36 117.046C491.36 113.405 492.785 110.533 495.646 108.43C498.506 106.34 502.385 105.282 507.293 105.282C512.201 105.282 516.187 106.328 519.275 108.43C522.363 110.533 523.908 113.261 523.908 116.637H523.944Z" fill="white"/>
<path d="M660.956 46.5011C660.956 43.7615 660.406 41.13 659.317 38.5707C659.041 37.9339 658.838 37.4532 658.706 37.1408C658.574 36.8284 658.503 36.528 658.503 36.2516V35.4346C658.503 34.5214 659.053 34.0648 660.142 34.0648H678.254C679.977 34.0648 681.186 34.4132 681.857 35.0861C682.527 35.759 682.874 36.8885 682.874 38.4385V111.723C682.874 113.273 683.006 114.318 683.281 114.871C683.557 115.424 684.011 115.688 684.646 115.688C685.46 115.688 686.034 115.376 686.346 114.727C686.669 114.09 687.004 112.636 687.363 110.353C687.543 108.803 687.722 107.866 687.914 107.553C688.093 107.241 688.464 107.073 689.003 107.073H691.313C691.864 107.073 692.247 107.397 692.474 108.034C692.702 108.671 692.81 109.764 692.81 111.314C692.81 118.608 690.858 124.207 686.956 128.136C683.054 132.053 677.464 134.012 670.198 134.012C662.932 134.012 657.82 132.029 654.062 128.064C650.291 124.099 648.412 118.428 648.412 111.038V68.0935H634.514C635.507 68.9105 636.19 69.7637 636.561 70.6288C636.92 71.4939 637.111 72.7916 637.111 74.5219V127.98C637.111 129.53 636.776 130.648 636.094 131.333C635.412 132.017 634.203 132.354 632.491 132.354H606.611C604.887 132.354 603.678 132.017 602.996 131.333C602.314 130.648 601.978 129.53 601.978 127.98V68.0935H592.857C591.768 68.0935 591.217 67.6369 591.217 66.7237V64.2604C591.217 63.3472 591.768 62.8906 592.857 62.8906H601.978V56.1858C601.978 48.2554 604.744 41.8991 610.286 37.1168C615.816 32.3345 623.178 29.9434 632.347 29.9434C639.613 29.9434 645.515 31.4453 650.051 34.4493C654.588 37.4532 656.863 41.3824 656.863 46.2127C656.863 50.3101 655.211 53.5544 651.895 55.9215C648.579 58.2886 644.114 59.4781 638.476 59.4781C632.838 59.4781 628.948 58.4328 625.943 56.33C622.95 54.2393 621.454 51.3675 621.454 47.7147C621.454 44.9751 622.448 42.7762 624.447 41.082C626.446 39.3998 629.163 38.5467 632.623 38.5467C632.802 38.3664 632.922 38.1381 632.958 37.8618C633.006 37.5854 633.03 37.3571 633.03 37.1769C633.03 35.9032 632.072 35.2664 630.169 35.2664C626.625 35.2664 623.609 36.516 621.107 39.0273C618.605 41.5386 617.36 44.5666 617.36 48.1232C617.36 54.78 621.442 59.6944 629.618 62.8906H647.466C651.823 61.4367 655.163 59.3099 657.473 56.5343C659.783 53.7586 660.945 50.4062 660.945 46.4891L660.956 46.5011Z" fill="white"/>
<path d="M734.91 134C722.101 134 712.369 130.9 705.69 124.7C699.01 118.5 695.683 109.476 695.683 97.6282C695.683 85.7807 699.022 76.7568 705.69 70.5567C712.369 64.3565 722.101 61.2565 734.91 61.2565C747.718 61.2565 757.45 64.3565 764.129 70.5567C770.809 76.7568 774.137 85.7807 774.137 97.6282C774.137 109.476 770.797 118.5 764.129 124.7C757.45 130.9 747.718 134 734.91 134ZM734.91 127.716C736.55 127.716 737.363 126.49 737.363 124.027V71.2416C737.363 68.7784 736.55 67.5527 734.91 67.5527C733.27 67.5527 732.456 68.7784 732.456 71.2416V124.015C732.456 126.478 733.27 127.704 734.91 127.704V127.716Z" fill="white"/>
<path d="M786.119 62.9026C793.923 62.9026 799.238 65.2216 802.051 69.8717C804.685 66.9519 807.642 64.7891 810.909 63.3832C814.177 61.9653 817.948 61.2684 822.209 61.2684C828.841 61.2684 834.288 63.0948 838.549 66.7356C842.811 70.3884 844.953 75.0265 844.953 80.6859C844.953 85.4322 843.229 89.2772 839.782 92.2331C836.335 95.201 831.882 96.6789 826.435 96.6789C820.989 96.6789 816.703 95.3091 813.292 92.5816C809.892 89.842 808.18 86.3814 808.18 82.1879C808.18 78.6312 809.401 75.7234 811.855 73.4404C814.309 71.1694 817.433 70.0279 821.252 70.0279C821.527 69.5713 821.659 69.1147 821.659 68.6581C821.659 67.3845 820.701 66.7476 818.798 66.7476C814.8 66.7476 811.352 68.2736 808.444 71.3256C805.535 74.3777 804.086 78.0425 804.086 82.3321C804.086 85.9849 805.104 89.1931 807.151 91.9688C809.198 94.7564 812.118 96.9553 815.937 98.6015C817.206 99.1542 818.044 99.767 818.451 100.452C818.858 101.137 819.061 102.302 819.061 103.936V128.004C819.061 130.924 817.517 132.378 814.429 132.378H786.777C783.964 132.378 782.552 130.924 782.552 128.004V79.7487C782.552 76.5645 782.097 74.1253 781.187 72.4311C780.277 70.7489 778.601 69.1748 776.147 67.7209C775.513 67.3604 775.13 67.06 774.986 66.8317C774.855 66.6034 774.783 66.303 774.783 65.9426V64.2964C774.783 63.3832 775.333 62.9266 776.423 62.9266H786.095L786.119 62.9026Z" fill="white"/>
<path d="M879.141 100.776C879.141 102.879 880.912 104.814 884.455 106.592C887.999 108.37 891.949 109.259 896.306 109.259C904.937 109.259 912.011 106.34 917.554 100.512C918.104 99.9593 918.487 99.6228 918.715 99.4907C918.942 99.3585 919.277 99.2864 919.732 99.2864H921.372C922.007 99.2864 922.437 99.5147 922.665 99.9713C922.892 100.428 923 101.245 923 102.435C923 108.082 921.48 113.309 918.439 118.091C915.399 122.873 911.09 126.73 905.499 129.638C899.909 132.546 893.673 134.012 886.778 134.012C879.428 134.012 872.796 132.51 866.895 129.506C860.994 126.502 856.289 122.212 852.794 116.649C849.298 111.098 847.551 104.754 847.551 97.6522C847.551 90.5509 849.191 84.3868 852.459 78.9196C855.727 73.4525 860.383 69.1388 866.416 66.0027C872.449 62.8545 879.512 61.2925 887.592 61.2925C893.673 61.2925 899.143 62.2537 904.003 64.1643C908.863 66.0748 912.694 68.8144 915.507 72.371C918.32 75.9277 919.732 80.0251 919.732 84.6752C919.732 90.599 917.601 95.5014 913.328 99.3705C909.055 103.24 903.656 105.186 897.12 105.186C890.584 105.186 885.269 102.999 881.188 98.6255C880.637 98.6255 880.17 98.8298 879.751 99.2383C879.344 99.6469 879.141 100.176 879.141 100.812V100.776ZM883.223 91.3439C883.773 92.0769 884.491 92.4374 885.401 92.4374C887.041 92.4374 887.855 91.5242 887.855 89.6978V70.2803C887.855 68.4539 887.041 67.5407 885.401 67.5407C884.491 67.5407 883.761 67.9012 883.223 68.6341V91.3319V91.3439Z" fill="white"/>
<path d="M958.54 116.637C958.54 119.004 957.726 120.987 956.086 122.585C954.446 124.183 952.22 125.072 949.407 125.252C949.048 125.805 948.856 126.298 948.856 126.754C948.856 127.944 949.67 128.533 951.31 128.533C954.219 128.533 956.828 127.283 959.139 124.772C961.449 122.261 962.61 119.377 962.61 116.084C962.61 112.348 961.341 109.404 958.792 107.265C956.254 105.126 951.849 103.324 945.576 101.87C933.678 99.1302 927.728 93.3025 927.728 84.3748C927.728 77.2614 931.152 71.638 938.011 67.4926C944.87 63.3472 954.147 61.2684 965.866 61.2684C975.49 61.2684 982.984 62.7464 988.334 65.7143C993.685 68.6822 996.367 72.8036 996.367 78.0905C996.367 81.7313 994.954 84.6271 992.141 86.7659C989.328 88.9047 985.426 89.9741 980.422 89.9741C975.418 89.9741 971.528 88.9288 968.44 86.826C965.351 84.7353 963.807 81.9957 963.807 78.6192C963.807 76.2521 964.621 74.2695 966.261 72.6714C967.901 71.0733 970.116 70.1841 972.941 70.0039C973.3 69.4512 973.491 68.9585 973.491 68.5019C973.491 67.3124 972.677 66.7236 971.037 66.7236C968.128 66.7236 965.519 67.9732 963.209 70.4845C960.898 72.9958 959.737 75.8796 959.737 79.1719C959.737 82.9089 961.126 85.8768 963.891 88.0636C966.656 90.2505 971.265 92.0288 977.717 93.3986C985.342 94.9487 990.788 97.1115 994.056 99.8871C997.324 102.663 998.964 106.604 998.964 111.711C998.964 118.908 995.768 124.423 989.364 128.256C982.96 132.089 973.766 134 961.784 134C950.891 134 942.189 132.45 935.701 129.35C929.213 126.25 925.957 122.152 925.957 117.046C925.957 113.405 927.381 110.533 930.242 108.43C933.103 106.34 936.982 105.282 941.889 105.282C946.797 105.282 950.783 106.328 953.872 108.43C956.96 110.533 958.504 113.261 958.504 116.637H958.54Z" fill="white"/>
<path d="M167.789 24.356C167.789 17.8915 162.57 12.6526 156.13 12.6526C154.454 12.6526 152.85 13.0131 151.413 13.6499C151.521 13.0131 151.569 12.3642 151.569 11.7034C151.569 5.23888 146.35 0 139.91 0C133.47 0 128.251 5.23888 128.251 11.7034C128.251 12.4484 128.322 13.1813 128.454 13.8902C126.886 13.0972 125.102 12.6526 123.223 12.6526C116.783 12.6526 111.564 17.8915 111.564 24.356C111.564 30.1596 115.766 34.9659 121.284 35.9032C119.452 37.9699 118.327 40.6975 118.327 43.6894C118.327 50.1539 123.546 55.3928 129.986 55.3928C134.104 55.3928 137.719 53.2539 139.802 50.0097C141.873 53.2419 145.5 55.3928 149.618 55.3928C156.058 55.3928 161.277 50.1539 161.277 43.6894C161.277 40.6854 160.152 37.9458 158.296 35.8671C163.707 34.8458 167.801 30.0875 167.801 24.368L167.789 24.356Z" fill="white"/>
</g>
<defs>
<clipPath id="clip0_55_37">
<rect width="999" height="134" fill="white"/>
</clipPath>
</defs>
</svg>
